HIERARCHY
ROOT SpineBase
{
  OFFSET 0.000000 0.000000 0.000000
  CHANNELS 6 Xposition Yposition Zposition Zrotation Xrotation Yrotation
  JOINT SpineMid
  {
    OFFSET -0.000000 34.829901 0.000000
    CHANNELS 3 Zrotation Xrotation Yrotation
    JOINT SpineShoulder
    {
      OFFSET -0.305188 25.910615 -0.760402
      CHANNELS 3 Zrotation Xrotation Yrotation
      JOINT Neck
      {
        OFFSET -0.162219 8.533856 -0.594273
        CHANNELS 3 Zrotation Xrotation Yrotation
        JOINT Head
        {
          OFFSET -2.848029 10.991526 8.991567
          CHANNELS 3 Zrotation Xrotation Yrotation
          End Site
          {
            OFFSET 0 0 0
          }
        }
      }
      JOINT ShoulderLeft
      {
        OFFSET -11.211975 -3.307803 24.552981
        CHANNELS 3 Zrotation Xrotation Yrotation
        JOINT ElbowLeft
        {
          OFFSET 19.061085 -19.862649 -6.578450
          CHANNELS 3 Zrotation Xrotation Yrotation
          JOINT WristLeft
          {
            OFFSET 11.177314 -25.309548 0.753099
            CHANNELS 3 Zrotation Xrotation Yrotation
            JOINT HandLeft
            {
              OFFSET 0.356125 -4.509450 4.966331
              CHANNELS 3 Zrotation Xrotation Yrotation
              JOINT HandTipLeft
              {
                OFFSET -0.254128 -1.018754 -0.715018
                CHANNELS 3 Zrotation Xrotation Yrotation
                End Site
                {
                  OFFSET 0 0 0
                }
              }
              JOINT ThumbLeft
              {
                OFFSET 2.096628 -1.307749 -0.114470
                CHANNELS 3 Zrotation Xrotation Yrotation
                End Site
                {
                  OFFSET 0 0 0
                }
              }
            }
          }
        }
      }
      JOINT ShoulderRight
      {
        OFFSET -0.405404 -4.903951 -12.881004
        CHANNELS 3 Zrotation Xrotation Yrotation
        JOINT ElbowRight
        {
          OFFSET -0.431550 -26.626645 -10.588944
          CHANNELS 3 Zrotation Xrotation Yrotation
          JOINT WristRight
          {
            OFFSET -3.632054 -25.710552 -8.227453
            CHANNELS 3 Zrotation Xrotation Yrotation
            JOINT HandRight
            {
              OFFSET 0.534234 -5.700634 -0.697682
              CHANNELS 3 Zrotation Xrotation Yrotation
              JOINT HandTipRight
              {
                OFFSET 0.693841 -3.953627 -2.798553
                CHANNELS 3 Zrotation Xrotation Yrotation
                End Site
                {
                  OFFSET 0 0 0
                }
              }
              JOINT ThumbRight
              {
                OFFSET -4.388096 0.452523 0.348061
                CHANNELS 3 Zrotation Xrotation Yrotation
                End Site
                {
                  OFFSET 0 0 0
                }
              }
            }
          }
        }
      }
    }
  }
  JOINT HipLeft
  {
    OFFSET -1.559685 -0.204687 0.433524
    CHANNELS 3 Zrotation Xrotation Yrotation
    JOINT KneeLeft
    {
      OFFSET 18.524250 -32.560379 3.141697
      CHANNELS 3 Zrotation Xrotation Yrotation
      JOINT AnkleLeft
      {
        OFFSET 5.002040 -38.574631 6.123162
        CHANNELS 3 Zrotation Xrotation Yrotation
        JOINT FootLeft
        {
          OFFSET -5.947025 -0.359337 -16.005487
          CHANNELS 3 Zrotation Xrotation Yrotation
          End Site
          {
            OFFSET 0 0 0
          }
        }
      }
    }
  }
  JOINT HipRight
  {
    OFFSET 0.689390 1.865629 -7.669661
    CHANNELS 3 Zrotation Xrotation Yrotation
    JOINT KneeRight
    {
      OFFSET 7.034346 -39.931193 -7.141094
      CHANNELS 3 Zrotation Xrotation Yrotation
      JOINT AnkleRight
      {
        OFFSET 2.824767 -34.323735 -1.794890
        CHANNELS 3 Zrotation Xrotation Yrotation
        JOINT FootRight
        {
          OFFSET -10.461436 -3.643523 -6.758858
          CHANNELS 3 Zrotation Xrotation Yrotation
          End Site
          {
            OFFSET 0 0 0
          }
        }
      }
    }
  }
}
MOTION
Frames: 13
Frame Time: 0.033333
29.729214 84.114591 301.727280 0.000000 0.000000 74.487770 -0.000000 0.000000 -74.487770 -0.000000 0.000000 0.000000 -0.000000 0.000000 0.000000 0.000000 0.000000 0.000000 -0.000000 0.000000 0.000000 -0.000000 0.000000 0.000000 -0.000000 0.000000 0.000000 -0.000000 0.000000 0.000000 0.000000 0.000000 0.000000 0.000000 0.000000 0.000000 -0.000000 0.000000 0.000000 -0.000000 0.000000 0.000000 -0.000000 0.000000 0.000000 -0.000000 0.000000 0.000000 0.000000 0.000000 0.000000 0.000000 0.000000 0.000000 -0.000000 0.000000 -74.487770 -0.000000 0.000000 0.000000 -0.000000 0.000000 0.000000 0.000000 0.000000 0.000000 -0.000000 0.000000 -74.487770 -0.000000 0.000000 0.000000 -0.000000 0.000000 0.000000 0.000000 0.000000 0.000000
29.354103 85.484739 302.409561 -0.188488 -0.257925 76.870675 0.293997 -0.124973 -76.870779 -0.000000 0.000000 0.000000 -0.000000 0.000000 0.000000 0.000000 0.000000 0.000000 -0.000000 0.000000 0.000000 -0.000000 0.000000 0.000000 -0.000000 0.000000 0.000000 0.797786 -1.451378 -0.189786 0.000000 0.000000 0.000000 0.000000 0.000000 0.000000 -0.000000 0.000000 0.000000 -0.000000 0.000000 0.000000 0.803752 0.288665 -0.073272 -1.856018 -3.722370 0.180441 0.000000 0.000000 0.000000 0.000000 0.000000 0.000000 0.990796 0.180189 -76.458473 -0.295824 0.234321 -0.355775 0.942222 -2.407247 2.623987 0.000000 0.000000 0.000000 0.293997 -0.124973 -76.870779 -0.000000 0.000000 0.000000 -0.000000 0.000000 0.000000 0.000000 0.000000 0.000000
29.090092 86.632931 302.971527 -0.294289 -0.465139 78.437573 -0.360548 0.356144 -78.466453 -0.086484 0.098377 -0.037110 0.801166 0.649490 0.063614 0.000000 0.000000 0.000000 0.801166 0.649490 0.063614 -0.000000 0.000000 0.000000 -0.000000 0.000000 0.000000 1.410080 -2.578806 -0.320640 0.000000 0.000000 0.000000 0.000000 0.000000 0.000000 0.801166 0.649490 0.063614 -0.666552 -0.803396 0.322581 2.079420 1.493836 -0.465879 -3.598335 -6.689252 0.480856 0.000000 0.000000 0.000000 0.000000 0.000000 0.000000 1.735248 0.391053 -77.722646 -0.454772 0.465030 -0.614669 1.780058 -4.403604 4.766193 0.000000 0.000000 0.000000 -0.593007 -0.912253 -78.751409 -0.995399 2.153900 0.425874 0.501179 -0.931276 -0.098785 0.000000 0.000000 0.000000
28.937180 87.559168 303.413178 -0.311275 -0.616145 79.466795 -0.508187 0.529329 -79.503049 -0.130186 0.125903 -0.048943 1.053368 0.894595 0.082167 0.000000 0.000000 0.000000 1.053368 0.894595 0.082167 -0.000000 0.000000 0.000000 -0.000000 0.000000 0.000000 1.824953 -3.354485 -0.400321 0.000000 0.000000 0.000000 0.000000 0.000000 0.000000 1.053368 0.894595 0.082167 -0.916412 -0.977588 0.424224 2.732642 2.203218 -0.592893 -5.244856 -8.988228 0.904904 0.000000 0.000000 0.000000 0.000000 0.000000 0.000000 2.250340 0.680110 -78.546078 -0.482459 0.667110 -0.788656 2.478063 -5.978621 6.366185 0.000000 0.000000 0.000000 -0.862568 -1.030101 -79.872704 -1.258044 2.914872 0.565898 0.690025 -1.272968 -0.133196 0.000000 0.000000 0.000000
28.895367 88.263448 303.734513 -0.235085 -0.706455 80.105021 -0.638191 0.691752 -80.143222 -0.175817 0.136125 -0.056459 0.614735 1.580509 0.712572 0.000000 0.000000 0.000000 2.024558 1.361405 0.069126 -0.824615 -0.278223 0.004149 -0.000000 0.000000 0.000000 2.034240 -3.759951 -0.434799 0.000000 0.000000 0.000000 0.000000 0.000000 0.000000 1.200143 1.082047 0.092856 -1.114263 -1.003613 0.489296 3.125085 2.902793 -0.638699 -6.819792 -10.683521 1.463577 0.000000 0.000000 0.000000 0.000000 0.000000 0.000000 2.546914 1.073585 -79.066789 -0.381532 0.823883 -0.886480 3.006385 -7.129542 7.379762 0.000000 0.000000 0.000000 -1.114837 -0.941816 -80.559877 -1.372293 3.485240 0.656568 0.838003 -1.532068 -0.158726 0.000000 0.000000 0.000000
28.964654 88.745772 303.935532 -0.063444 -0.732843 80.430621 -0.751908 0.839285 -80.465293 -0.223949 0.127542 -0.059720 0.498240 1.777448 0.865253 0.000000 0.000000 0.000000 2.338014 1.552740 0.033779 -1.100120 -0.342641 0.032596 -0.000000 0.000000 0.000000 2.033753 -3.785891 -0.427398 0.000000 0.000000 0.000000 0.000000 0.000000 0.000000 1.237872 1.209164 0.096179 -1.261734 -0.882291 0.519169 3.250527 3.601897 -0.597007 -8.352756 -11.812578 2.176358 0.000000 0.000000 0.000000 0.000000 0.000000 0.000000 2.629816 1.586468 -79.356765 -0.151812 0.924922 -0.914165 3.342766 -7.856943 7.777244 0.000000 0.000000 0.000000 -1.357105 -0.655331 -80.891538 -1.340861 3.874606 0.697465 0.945275 -1.708632 -0.175981 0.000000 0.000000 0.000000
29.363166 88.814082 304.003106 0.491862 -0.640144 80.108360 -0.919076 1.108350 -80.124870 -0.345889 0.084952 -0.057851 0.149093 1.819566 1.033618 0.000000 0.000000 0.000000 2.530797 1.624190 -0.082133 -1.428061 -0.354221 0.130344 -0.000000 0.000000 0.000000 1.646148 -3.130025 -0.337153 0.000000 0.000000 0.000000 0.000000 0.000000 0.000000 1.101905 1.271512 0.088731 -1.386786 -0.626140 0.524690 2.870943 4.378418 -0.426979 -12.536491 -11.674521 5.018284 0.000000 0.000000 0.000000 0.000000 0.000000 0.000000 2.276830 2.686322 -79.143791 0.501675 0.870621 -0.815942 3.283133 -7.847508 7.096227 0.000000 0.000000 0.000000 -1.557877 0.306767 -80.453004 -1.015772 3.953487 0.624263 1.060519 -1.841909 -0.190024 0.000000 0.000000 0.000000
29.390149 88.595280 303.712569 0.528040 -0.194167 78.779452 -1.180488 1.032197 -78.795922 -0.279419 0.046770 -0.052417 -0.154725 1.681773 1.193679 0.000000 0.000000 0.000000 2.657224 1.379833 -0.241367 -1.663694 -0.280708 0.281747 -0.000000 0.000000 0.000000 1.018230 -2.041990 -0.189890 0.000000 0.000000 0.000000 0.000000 0.000000 0.000000 0.992072 1.105553 0.080572 -1.246649 -0.283509 0.435587 2.807808 6.308180 -0.151456 -17.637841 -10.483054 8.172999 0.000000 0.000000 0.000000 0.000000 0.000000 0.000000 1.513696 2.839260 -77.952841 1.074388 0.306767 -0.709016 3.137725 -7.604708 7.024697 0.000000 0.000000 0.000000 -1.982452 0.267304 -79.111431 -1.016893 3.924841 0.614270 1.104581 -1.848709 -0.192109 0.000000 0.000000 0.000000
29.461047 88.530277 303.722192 0.568302 -0.325369 78.276894 -0.999968 1.040987 -78.290985 -0.201575 0.121094 -0.043138 -0.330139 1.379191 1.169081 0.000000 0.000000 0.000000 3.128453 1.531848 -0.192799 -2.271783 -0.565640 0.202660 -0.000000 0.000000 0.000000 -0.000000 0.000000 0.000000 0.000000 0.000000 0.000000 0.000000 0.000000 0.000000 1.637505 0.850979 -0.251135 -1.912579 0.730003 0.590768 1.841811 6.658715 0.291129 -23.226213 -7.877239 12.639097 0.000000 0.000000 0.000000 0.000000 0.000000 0.000000 1.818018 3.168657 -77.333212 1.454710 -0.319558 -0.849259 3.034227 -7.446582 6.800949 0.000000 0.000000 0.000000 -1.803186 0.506650 -78.555217 -0.765538 3.658975 0.537643 1.033900 -1.678790 -0.177093 0.000000 0.000000 0.000000
30.351243 88.405589 303.597852 1.620531 -0.333017 78.983005 -0.930712 1.453462 -78.963781 -0.571108 -0.017172 -0.041694 -0.761463 1.439623 1.273878 0.000000 0.000000 0.000000 3.052460 1.640638 -0.200297 -2.495523 -0.661835 0.181226 -0.000000 0.000000 0.000000 -0.000000 0.000000 0.000000 0.000000 0.000000 0.000000 0.000000 0.000000 0.000000 1.522995 0.896746 -0.347127 -2.428736 1.490259 0.666957 1.070109 5.594373 0.471804 -10.824627 -9.140001 5.347481 0.000000 0.000000 0.000000 0.000000 0.000000 0.000000 1.139676 5.148845 -78.338116 2.361606 0.213939 -0.543399 3.069582 -7.437287 6.161106 0.000000 0.000000 0.000000 -2.232931 2.501477 -79.031954 0.312524 3.604272 0.336719 0.936550 -1.562235 -0.164790 0.000000 0.000000 0.000000
31.778053 88.164736 303.556949 3.206728 -0.551485 80.318647 -0.618846 1.906670 -80.249304 -1.130425 -0.335313 -0.033322 -1.704005 1.869029 1.554741 0.000000 0.000000 0.000000 2.315981 1.795839 -0.243526 -2.405792 -0.628411 0.184713 -0.000000 0.000000 0.000000 -0.000000 0.000000 0.000000 0.000000 0.000000 0.000000 0.000000 0.000000 0.000000 1.207019 1.115321 -0.525190 -2.693831 2.266058 0.668200 -0.461178 4.152781 0.753772 0.849156 -13.759645 -1.650718 0.000000 0.000000 0.000000 0.000000 0.000000 0.000000 0.896631 8.526222 -79.866628 4.026606 0.306703 -0.351743 2.877072 -6.765911 5.057625 0.000000 0.000000 0.000000 -2.515216 5.619903 -79.979158 1.871275 3.558779 0.034315 1.529089 -2.075180 0.356257 0.000000 0.000000 0.000000
33.531480 87.901872 303.483149 5.049750 -0.799941 82.421445 -0.368941 2.273054 -82.289512 -1.579740 -0.726503 -0.000038 -2.722218 2.401972 1.496717 0.000000 0.000000 0.000000 0.989671 2.041517 -0.380484 -2.153054 -0.459631 0.268649 -0.000000 0.000000 0.000000 -0.000000 0.000000 0.000000 0.000000 0.000000 0.000000 0.000000 0.000000 0.000000 0.259215 1.582443 -0.641316 -3.546585 2.551444 0.917418 2.714279 1.751138 0.078479 6.697167 -21.283884 -7.565822 0.000000 0.000000 0.000000 0.000000 0.000000 0.000000 0.775976 12.613080 -82.268574 5.993777 0.780333 -0.028716 2.648555 -5.793325 3.699235 0.000000 0.000000 0.000000 -2.626891 9.552492 -81.552349 4.160645 3.407003 -0.400263 1.842478 -2.297445 0.425413 0.000000 0.000000 0.000000
35.913341 87.467001 303.676446 7.510973 -1.410731 84.414975 0.003547 2.803366 -84.181284 -1.968920 -1.218543 0.070412 -4.276432 3.488773 1.521651 0.000000 0.000000 0.000000 -0.431112 2.751595 -0.574175 -2.311204 -0.408900 0.372571 -0.000000 0.000000 0.000000 -0.000000 0.000000 0.000000 0.000000 0.000000 0.000000 0.000000 0.000000 0.000000 -1.309937 2.409058 -0.722105 -5.833836 2.182127 1.716657 0.206839 2.267871 -0.035967 13.087468 -25.328749 -9.486798 0.000000 0.000000 0.000000 0.000000 0.000000 0.000000 1.253293 18.210777 -84.608693 8.774971 1.297317 0.351956 3.207546 -6.691041 4.942024 0.000000 0.000000 0.000000 -1.744803 15.013324 -82.797137 7.321356 2.640262 -1.065672 2.323895 -2.653742 0.513508 0.000000 0.000000 0.000000
